<?xml version="1.0" encoding="UTF-8" standalone="no"?>
<svg
   xmlns:dc="http://purl.org/dc/elements/1.1/"
   xmlns:cc="http://creativecommons.org/ns#"
   xmlns:rdf="http://www.w3.org/1999/02/22-rdf-syntax-ns#"
   xmlns:svg="http://www.w3.org/2000/svg"
   xmlns="http://www.w3.org/2000/svg"
   xmlns:sodipodi="http://sodipodi.sourceforge.net/DTD/sodipodi-0.dtd"
   xmlns:inkscape="http://www.inkscape.org/namespaces/inkscape"
   width="210mm"
   height="297mm"
   viewBox="0 0 210 297"
   version="1.1"
   id="svg8"
   sodipodi:docname="facebook.svg"
   inkscape:version="1.0.1 (3bc2e813f5, 2020-09-07)">
  <defs
     id="defs2" />
  <sodipodi:namedview
     id="base"
     pagecolor="#ffffff"
     bordercolor="#666666"
     borderopacity="1.0"
     inkscape:pageopacity="0.0"
     inkscape:pageshadow="2"
     inkscape:zoom="0.08"
     inkscape:cx="-1133.1544"
     inkscape:cy="-391.08047"
     inkscape:document-units="mm"
     inkscape:current-layer="layer1"
     inkscape:document-rotation="0"
     showgrid="false"
     inkscape:window-width="1366"
     inkscape:window-height="705"
     inkscape:window-x="1432"
     inkscape:window-y="-8"
     inkscape:window-maximized="1" />
  <metadata
     id="metadata5">
    <rdf:RDF>
      <cc:Work
         rdf:about="">
        <dc:format>image/svg+xml</dc:format>
        <dc:type
           rdf:resource="http://purl.org/dc/dcmitype/StillImage" />
        <dc:title></dc:title>
      </cc:Work>
    </rdf:RDF>
  </metadata>
  <g
     inkscape:label="Layer 1"
     inkscape:groupmode="layer"
     id="layer1">
    <path
       d="m 171.14584,148.49805 c 0,36.53189 -29.61482,66.14779 -66.14657,66.14779 -36.529325,0 -66.145105,-29.6159 -66.145105,-66.14779 0,-36.52897 29.61578,-66.143885 66.145105,-66.143885 36.53175,0 66.14657,29.614915 66.14657,66.143885"
       style="fill:#101011;fill-opacity:1;fill-rule:nonzero;stroke:none;stroke-width:0.00976423"
       id="path851" />
    <path
       d="m 94.37304,190.65805 h 16.97739 v -42.51542 h 11.84397 l 1.26447,-14.23625 h -13.10844 c 0,0 0,-5.31565 0,-8.10725 0,-3.35694 0.67471,-4.68488 3.91935,-4.68488 2.61193,0 9.18909,0 9.18909,0 v -14.7723 c 0,0 -9.68901,0 -11.75609,0 -12.63419,0 -18.32974,5.56367 -18.32974,16.21546 0,9.27602 0,11.34897 0,11.34897 h -8.83191 v 14.41494 h 8.83191 v 42.33673"
       style="fill:#ffffff;fill-opacity:1;fill-rule:nonzero;stroke:none;stroke-width:0.00976423"
       id="path853" />
  </g>
</svg>
