<?xml version="1.0" encoding="UTF-8" standalone="no"?>
<svg
   xmlns:dc="http://purl.org/dc/elements/1.1/"
   xmlns:cc="http://creativecommons.org/ns#"
   xmlns:rdf="http://www.w3.org/1999/02/22-rdf-syntax-ns#"
   xmlns:svg="http://www.w3.org/2000/svg"
   xmlns="http://www.w3.org/2000/svg"
   xmlns:sodipodi="http://sodipodi.sourceforge.net/DTD/sodipodi-0.dtd"
   xmlns:inkscape="http://www.inkscape.org/namespaces/inkscape"
   width="210mm"
   height="297mm"
   viewBox="0 0 210 297"
   version="1.1"
   id="svg8"
   sodipodi:docname="instagram.svg"
   inkscape:version="1.0.1 (3bc2e813f5, 2020-09-07)">
  <defs
     id="defs2" />
  <sodipodi:namedview
     id="base"
     pagecolor="#ffffff"
     bordercolor="#666666"
     borderopacity="1.0"
     inkscape:pageopacity="0.0"
     inkscape:pageshadow="2"
     inkscape:zoom="0.08"
     inkscape:cx="-1133.1544"
     inkscape:cy="-391.08047"
     inkscape:document-units="mm"
     inkscape:current-layer="layer1"
     inkscape:document-rotation="0"
     showgrid="false"
     inkscape:window-width="1366"
     inkscape:window-height="705"
     inkscape:window-x="1432"
     inkscape:window-y="-8"
     inkscape:window-maximized="1" />
  <metadata
     id="metadata5">
    <rdf:RDF>
      <cc:Work
         rdf:about="">
        <dc:format>image/svg+xml</dc:format>
        <dc:type
           rdf:resource="http://purl.org/dc/dcmitype/StillImage" />
        <dc:title></dc:title>
      </cc:Work>
    </rdf:RDF>
  </metadata>
  <g
     inkscape:label="Layer 1"
     inkscape:groupmode="layer"
     id="layer1">
    <g
       id="g921"
       transform="translate(61.659231,735.75132)">
      <path
         d="m 109.4866,-587.25327 c 0,36.5319 -29.61513,66.14779 -66.145342,66.14779 -36.5311883,0 -66.146321,-29.61589 -66.146321,-66.14779 0,-36.52897 29.6151327,-66.14388 66.146321,-66.14388 36.530212,0 66.145342,29.61491 66.145342,66.14388"
         style="fill:#101011;fill-opacity:1;fill-rule:nonzero;stroke:none;stroke-width:0.00976426"
         id="path855" />
      <path
         d="m 43.40961,-624.10836 c -10.386292,0 -11.687874,0.043 -15.766421,0.22946 -4.069762,0.1865 -6.851612,0.83289 -9.284879,1.77806 -2.512354,0.97545 -4.64683,2.28483 -6.771544,4.41149 -2.125688,2.12567 -3.435081,4.25818 -4.4115113,6.77344 -0.9451846,2.43227 -1.5935345,5.21215 -1.7771033,9.28188 -0.1874748,4.0795 -0.2314142,5.38205 -0.2314142,15.76826 0,10.38523 0.043939,11.68681 0.2314142,15.7663 0.1835688,4.07071 0.8319187,6.85059 1.7771033,9.28286 0.9764303,2.51526 2.2858233,4.64777 4.4115113,6.77345 2.124714,2.12665 4.25919,3.43505 6.771544,4.41148 2.433267,0.94517 5.215117,1.59059 9.284879,1.77611 4.078547,0.18747 5.380129,0.23043 15.766421,0.23043 10.386288,0 11.688847,-0.043 15.767397,-0.23043 4.069759,-0.18552 6.849658,-0.83094 9.282922,-1.77611 2.515286,-0.97643 4.647808,-2.28483 6.774473,-4.41148 2.125691,-2.12568 3.43313,-4.25819 4.40956,-6.77345 0.946162,-2.43227 1.591582,-5.21215 1.778079,-9.28286 0.185523,-4.07949 0.230439,-5.38107 0.230439,-15.7663 0,-10.38621 -0.04492,-11.68876 -0.230439,-15.76826 -0.186497,-4.06973 -0.831917,-6.84961 -1.778079,-9.28188 -0.97643,-2.51526 -2.283869,-4.64777 -4.40956,-6.77344 -2.126665,-2.12666 -4.259187,-3.43604 -6.774473,-4.41149 -2.433264,-0.94517 -5.213163,-1.59156 -9.282922,-1.77806 -4.07855,-0.1865 -5.381109,-0.22946 -15.767397,-0.22946 m 0,6.89062 c 10.21053,0 11.420329,0.0381 15.452985,0.22165 3.728989,0.17087 5.753128,0.79383 7.101578,1.31719 1.784915,0.69424 3.057203,1.52322 4.396865,2.8619 1.338688,1.33672 2.167676,2.60998 2.860941,4.39585 0.522393,1.34845 1.146332,3.37355 1.316229,7.10153 0.184546,4.03165 0.222626,5.24144 0.222626,15.45385 0,10.21046 -0.03808,11.42024 -0.222626,15.45287 -0.169897,3.72799 -0.793836,5.75113 -1.316229,7.10055 -0.693265,1.78588 -1.522253,3.06011 -2.860941,4.39586 -1.339662,1.33867 -2.61195,2.16766 -4.396865,2.8619 -1.34845,0.52336 -3.372589,1.14632 -7.101578,1.31817 -4.032656,0.18161 -5.2405,0.22164 -15.452985,0.22164 -10.210534,0 -11.421307,-0.04 -15.453966,-0.22164 -3.728986,-0.17185 -5.753125,-0.79481 -7.100601,-1.31817 -1.785889,-0.69424 -3.05818,-1.52323 -4.394913,-2.8619 -1.340639,-1.33575 -2.170605,-2.60998 -2.861916,-4.39586 -0.524344,-1.34942 -1.146331,-3.37256 -1.31818,-7.10055 -0.184546,-4.03263 -0.222628,-5.24241 -0.222628,-15.45287 0,-10.21241 0.03808,-11.4222 0.222628,-15.45385 0.171849,-3.72798 0.793836,-5.75308 1.31818,-7.10153 0.691311,-1.78587 1.521277,-3.05913 2.861916,-4.39585 1.336733,-1.33868 2.609024,-2.16766 4.394913,-2.8619 1.347476,-0.52336 3.371615,-1.14632 7.100601,-1.31719 4.032659,-0.18357 5.243432,-0.22165 15.453966,-0.22165"
         style="fill:#ffffff;fill-opacity:1;fill-rule:nonzero;stroke:none;stroke-width:0.00976426"
         id="path857" />
      <path
         d="m 43.40961,-573.11857 c -7.040063,0 -12.748275,-5.70914 -12.748275,-12.7472 0,-7.04099 5.708212,-12.74818 12.748275,-12.74818 7.041037,0 12.747297,5.70719 12.747297,12.74818 0,7.03806 -5.70626,12.7472 -12.747297,12.7472 m 0,-32.38502 c -10.846189,0 -19.637967,8.79073 -19.637967,19.63782 0,10.84611 8.791778,19.63685 19.637967,19.63685 10.846186,0 19.636989,-8.79074 19.636989,-19.63685 0,-10.84709 -8.790803,-19.63782 -19.636989,-19.63782"
         style="fill:#ffffff;fill-opacity:1;fill-rule:nonzero;stroke:none;stroke-width:0.00976426"
         id="path859" />
      <path
         d="m 68.413061,-606.27985 c 0,2.53479 -2.055388,4.58821 -4.589223,4.58821 -2.533836,0 -4.589224,-2.05342 -4.589224,-4.58821 0,-2.53577 2.055388,-4.59114 4.589224,-4.59114 2.533835,0 4.589223,2.05537 4.589223,4.59114"
         style="fill:#ffffff;fill-opacity:1;fill-rule:nonzero;stroke:none;stroke-width:0.00976426"
         id="path861" />
    </g>
  </g>
</svg>
