<?xml version="1.0" encoding="UTF-8" standalone="no"?>
<svg
   xmlns:dc="http://purl.org/dc/elements/1.1/"
   xmlns:cc="http://creativecommons.org/ns#"
   xmlns:rdf="http://www.w3.org/1999/02/22-rdf-syntax-ns#"
   xmlns:svg="http://www.w3.org/2000/svg"
   xmlns="http://www.w3.org/2000/svg"
   xmlns:sodipodi="http://sodipodi.sourceforge.net/DTD/sodipodi-0.dtd"
   xmlns:inkscape="http://www.inkscape.org/namespaces/inkscape"
   width="210mm"
   height="297mm"
   viewBox="0 0 210 297"
   version="1.1"
   id="svg8"
   sodipodi:docname="twitter.svg"
   inkscape:version="1.0.1 (3bc2e813f5, 2020-09-07)">
  <defs
     id="defs2" />
  <sodipodi:namedview
     id="base"
     pagecolor="#ffffff"
     bordercolor="#666666"
     borderopacity="1.0"
     inkscape:pageopacity="0.0"
     inkscape:pageshadow="2"
     inkscape:zoom="0.32"
     inkscape:cx="307.98959"
     inkscape:cy="580.46074"
     inkscape:document-units="mm"
     inkscape:current-layer="layer1"
     inkscape:document-rotation="0"
     showgrid="false"
     inkscape:window-width="1366"
     inkscape:window-height="705"
     inkscape:window-x="1432"
     inkscape:window-y="-8"
     inkscape:window-maximized="1" />
  <metadata
     id="metadata5">
    <rdf:RDF>
      <cc:Work
         rdf:about="">
        <dc:format>image/svg+xml</dc:format>
        <dc:type
           rdf:resource="http://purl.org/dc/dcmitype/StillImage" />
        <dc:title></dc:title>
      </cc:Work>
    </rdf:RDF>
  </metadata>
  <g
     inkscape:label="Layer 1"
     inkscape:groupmode="layer"
     id="layer1">
    <path
       d="m 171.14583,148.49901 c 0,36.5319 -29.61415,66.14682 -66.14438,66.14682 -36.533133,0 -66.147284,-29.61492 -66.147284,-66.14682 0,-36.52993 29.614151,-66.144844 66.147284,-66.144844 36.53023,0 66.14438,29.614914 66.14438,66.144844"
       style="fill:#101011;fill-opacity:1;fill-rule:nonzero;stroke:none;stroke-width:0.00976424"
       id="path863" />
    <path
       d="m 67.838527,171.84921 c 6.748099,4.3275 14.763625,6.85156 23.372799,6.85156 28.311614,0 44.304554,-23.91261 43.341804,-45.35876 2.97713,-2.14715 5.5637,-4.83232 7.60834,-7.89438 -2.73596,1.21467 -5.67501,2.03388 -8.7576,2.40102 3.14702,-1.88254 5.56467,-4.87041 6.70221,-8.43532 -2.94589,1.7478 -6.20911,3.01813 -9.6813,3.7026 -2.78185,-2.96442 -6.74225,-4.8167 -11.13033,-4.8167 -9.84242,0 -17.0768,9.18523 -14.85249,18.72488 -12.67504,-0.63567 -23.90887,-6.70805 -31.428355,-15.93426 -3.994579,6.85449 -2.071987,15.82294 4.72006,20.3594 -2.502586,-0.0782 -4.855783,-0.76747 -6.910205,-1.90892 -0.163053,7.06638 4.896806,13.67287 12.231753,15.14531 -2.149123,0.58586 -4.499395,0.71573 -6.883837,0.25973 1.935282,6.06163 7.567327,10.46629 14.241238,10.58931 -6.410272,5.0276 -14.484372,7.26947 -22.574087,6.31453"
       style="fill:#ffffff;fill-opacity:1;fill-rule:nonzero;stroke:none;stroke-width:0.00976424"
       id="path865" />
  </g>
</svg>
